<mxfile host="app.diagrams.net" modified="2024-05-19T08:16:14.109Z" agent="Mozilla/5.0 (Windows NT 10.0; Win64; x64) AppleWebKit/537.36 (KHTML, like Gecko) Chrome/124.0.0.0 Safari/537.36" etag="jTiUq7aXQ0wPmUH3NsQg" version="24.4.4" type="device">
  <diagram name="Seite-1" id="Anpg-bSpl1Ad8y-ejLDw">
    <mxGraphModel dx="2074" dy="1132" grid="1" gridSize="10" guides="1" tooltips="1" connect="1" arrows="1" fold="1" page="1" pageScale="1" pageWidth="1169" pageHeight="827" math="0" shadow="0">
      <root>
        <mxCell id="0" />
        <mxCell id="1" parent="0" />
        <mxCell id="4Frrn1-FG3sVfnj2RJAE-1" value="Studierende" style="shape=umlActor;verticalLabelPosition=bottom;verticalAlign=top;html=1;fontStyle=0" parent="1" vertex="1">
          <mxGeometry x="80" y="190" width="30" height="60" as="geometry" />
        </mxCell>
        <mxCell id="4Frrn1-FG3sVfnj2RJAE-2" value="Unternehmer" style="shape=umlActor;verticalLabelPosition=bottom;verticalAlign=top;html=1;" parent="1" vertex="1">
          <mxGeometry x="80" y="530" width="30" height="60" as="geometry" />
        </mxCell>
        <mxCell id="4Frrn1-FG3sVfnj2RJAE-3" value="&lt;font style=&quot;font-size: 10px;&quot;&gt;Job-Platform System&lt;/font&gt;" style="shape=umlFrame;whiteSpace=wrap;html=1;pointerEvents=0;align=left;" parent="1" vertex="1">
          <mxGeometry x="360" y="40" width="630" height="1210" as="geometry" />
        </mxCell>
        <mxCell id="4Frrn1-FG3sVfnj2RJAE-4" value="Registration Studierende" style="ellipse;whiteSpace=wrap;html=1;" parent="1" vertex="1">
          <mxGeometry x="490" y="90" width="140" height="70" as="geometry" />
        </mxCell>
        <mxCell id="4Frrn1-FG3sVfnj2RJAE-11" value="" style="edgeStyle=orthogonalEdgeStyle;rounded=0;orthogonalLoop=1;jettySize=auto;html=1;dashed=1;entryX=0;entryY=0.5;entryDx=0;entryDy=0;" parent="1" source="4Frrn1-FG3sVfnj2RJAE-7" target="4Frrn1-FG3sVfnj2RJAE-14" edge="1">
          <mxGeometry relative="1" as="geometry">
            <mxPoint x="740" y="465" as="targetPoint" />
          </mxGeometry>
        </mxCell>
        <mxCell id="4Frrn1-FG3sVfnj2RJAE-12" value="&amp;lt;&amp;lt;include&amp;gt;&amp;gt;" style="edgeLabel;html=1;align=center;verticalAlign=middle;resizable=0;points=[];" parent="4Frrn1-FG3sVfnj2RJAE-11" vertex="1" connectable="0">
          <mxGeometry x="-0.2579" relative="1" as="geometry">
            <mxPoint x="4" as="offset" />
          </mxGeometry>
        </mxCell>
        <mxCell id="4Frrn1-FG3sVfnj2RJAE-7" value="Registration Unternehmer" style="ellipse;whiteSpace=wrap;html=1;" parent="1" vertex="1">
          <mxGeometry x="490" y="570" width="140" height="70" as="geometry" />
        </mxCell>
        <mxCell id="4Frrn1-FG3sVfnj2RJAE-8" value="" style="endArrow=none;html=1;rounded=0;entryX=0;entryY=0.5;entryDx=0;entryDy=0;exitX=0.5;exitY=0.5;exitDx=0;exitDy=0;exitPerimeter=0;" parent="1" source="4Frrn1-FG3sVfnj2RJAE-1" target="4Frrn1-FG3sVfnj2RJAE-4" edge="1">
          <mxGeometry width="50" height="50" relative="1" as="geometry">
            <mxPoint x="560" y="600" as="sourcePoint" />
            <mxPoint x="610" y="550" as="targetPoint" />
            <Array as="points" />
          </mxGeometry>
        </mxCell>
        <mxCell id="4Frrn1-FG3sVfnj2RJAE-9" value="" style="endArrow=none;html=1;rounded=0;entryX=0;entryY=0.5;entryDx=0;entryDy=0;exitX=0.5;exitY=0.5;exitDx=0;exitDy=0;exitPerimeter=0;" parent="1" source="4Frrn1-FG3sVfnj2RJAE-2" target="4Frrn1-FG3sVfnj2RJAE-7" edge="1">
          <mxGeometry width="50" height="50" relative="1" as="geometry">
            <mxPoint x="560" y="600" as="sourcePoint" />
            <mxPoint x="610" y="550" as="targetPoint" />
          </mxGeometry>
        </mxCell>
        <mxCell id="4Frrn1-FG3sVfnj2RJAE-14" value="Datenabgleich mit HReg" style="ellipse;whiteSpace=wrap;html=1;" parent="1" vertex="1">
          <mxGeometry x="760" y="570" width="140" height="70" as="geometry" />
        </mxCell>
        <mxCell id="4Frrn1-FG3sVfnj2RJAE-15" value="Einloggen" style="ellipse;whiteSpace=wrap;html=1;" parent="1" vertex="1">
          <mxGeometry x="490" y="480" width="140" height="70" as="geometry" />
        </mxCell>
        <mxCell id="4Frrn1-FG3sVfnj2RJAE-16" value="" style="endArrow=none;html=1;rounded=0;entryX=0;entryY=0.5;entryDx=0;entryDy=0;exitX=0.5;exitY=0.5;exitDx=0;exitDy=0;exitPerimeter=0;" parent="1" source="4Frrn1-FG3sVfnj2RJAE-2" target="4Frrn1-FG3sVfnj2RJAE-15" edge="1">
          <mxGeometry width="50" height="50" relative="1" as="geometry">
            <mxPoint x="120" y="270" as="sourcePoint" />
            <mxPoint x="610" y="550" as="targetPoint" />
          </mxGeometry>
        </mxCell>
        <mxCell id="4Frrn1-FG3sVfnj2RJAE-17" value="" style="endArrow=none;html=1;rounded=0;entryX=0;entryY=0.5;entryDx=0;entryDy=0;exitX=0.5;exitY=0.5;exitDx=0;exitDy=0;exitPerimeter=0;" parent="1" source="4Frrn1-FG3sVfnj2RJAE-1" target="4Frrn1-FG3sVfnj2RJAE-15" edge="1">
          <mxGeometry width="50" height="50" relative="1" as="geometry">
            <mxPoint x="120" y="130" as="sourcePoint" />
            <mxPoint x="610" y="550" as="targetPoint" />
          </mxGeometry>
        </mxCell>
        <mxCell id="4Frrn1-FG3sVfnj2RJAE-18" value="Programmiersprachen verwalten" style="ellipse;whiteSpace=wrap;html=1;" parent="1" vertex="1">
          <mxGeometry x="490" y="190" width="140" height="70" as="geometry" />
        </mxCell>
        <mxCell id="4Frrn1-FG3sVfnj2RJAE-19" value="" style="endArrow=none;html=1;rounded=0;exitX=0.5;exitY=0.5;exitDx=0;exitDy=0;exitPerimeter=0;entryX=0;entryY=0.5;entryDx=0;entryDy=0;" parent="1" source="4Frrn1-FG3sVfnj2RJAE-1" target="4Frrn1-FG3sVfnj2RJAE-18" edge="1">
          <mxGeometry width="50" height="50" relative="1" as="geometry">
            <mxPoint x="560" y="600" as="sourcePoint" />
            <mxPoint x="610" y="550" as="targetPoint" />
          </mxGeometry>
        </mxCell>
        <mxCell id="4Frrn1-FG3sVfnj2RJAE-20" value="studentische Stammdaten abfragen" style="ellipse;whiteSpace=wrap;html=1;" parent="1" vertex="1">
          <mxGeometry x="780" y="900" width="140" height="70" as="geometry" />
        </mxCell>
        <mxCell id="4Frrn1-FG3sVfnj2RJAE-26" value="" style="edgeStyle=orthogonalEdgeStyle;rounded=0;orthogonalLoop=1;jettySize=auto;html=1;entryX=0;entryY=0.5;entryDx=0;entryDy=0;dashed=1;" parent="1" source="4Frrn1-FG3sVfnj2RJAE-21" target="4Frrn1-FG3sVfnj2RJAE-20" edge="1">
          <mxGeometry relative="1" as="geometry">
            <mxPoint x="740" y="825" as="targetPoint" />
          </mxGeometry>
        </mxCell>
        <mxCell id="4Frrn1-FG3sVfnj2RJAE-33" value="&amp;lt;&amp;lt;include&amp;gt;&amp;gt;" style="edgeLabel;html=1;align=center;verticalAlign=middle;resizable=0;points=[];" parent="4Frrn1-FG3sVfnj2RJAE-26" vertex="1" connectable="0">
          <mxGeometry x="-0.139" relative="1" as="geometry">
            <mxPoint as="offset" />
          </mxGeometry>
        </mxCell>
        <mxCell id="4Frrn1-FG3sVfnj2RJAE-21" value="Projektausschreibung aufgeben" style="ellipse;whiteSpace=wrap;html=1;" parent="1" vertex="1">
          <mxGeometry x="490" y="900" width="140" height="70" as="geometry" />
        </mxCell>
        <mxCell id="4Frrn1-FG3sVfnj2RJAE-30" value="" style="edgeStyle=orthogonalEdgeStyle;rounded=0;orthogonalLoop=1;jettySize=auto;html=1;entryX=0.5;entryY=0;entryDx=0;entryDy=0;dashed=1;" parent="1" source="4Frrn1-FG3sVfnj2RJAE-22" target="4Frrn1-FG3sVfnj2RJAE-20" edge="1">
          <mxGeometry relative="1" as="geometry">
            <mxPoint x="740" y="935" as="targetPoint" />
          </mxGeometry>
        </mxCell>
        <mxCell id="4Frrn1-FG3sVfnj2RJAE-34" value="&amp;lt;&amp;lt;include&amp;gt;&amp;gt;" style="edgeLabel;html=1;align=center;verticalAlign=middle;resizable=0;points=[];" parent="4Frrn1-FG3sVfnj2RJAE-30" vertex="1" connectable="0">
          <mxGeometry x="-0.0533" relative="1" as="geometry">
            <mxPoint as="offset" />
          </mxGeometry>
        </mxCell>
        <mxCell id="4Frrn1-FG3sVfnj2RJAE-22" value="Suchanfragen stellen" style="ellipse;whiteSpace=wrap;html=1;" parent="1" vertex="1">
          <mxGeometry x="490" y="790" width="140" height="70" as="geometry" />
        </mxCell>
        <mxCell id="4Frrn1-FG3sVfnj2RJAE-23" value="Projekt planen" style="ellipse;whiteSpace=wrap;html=1;" parent="1" vertex="1">
          <mxGeometry x="490" y="680" width="140" height="70" as="geometry" />
        </mxCell>
        <mxCell id="4Frrn1-FG3sVfnj2RJAE-32" value="" style="edgeStyle=orthogonalEdgeStyle;rounded=0;orthogonalLoop=1;jettySize=auto;html=1;entryX=0.5;entryY=1;entryDx=0;entryDy=0;dashed=1;" parent="1" source="4Frrn1-FG3sVfnj2RJAE-24" target="4Frrn1-FG3sVfnj2RJAE-20" edge="1">
          <mxGeometry relative="1" as="geometry">
            <mxPoint x="730" y="1055" as="targetPoint" />
          </mxGeometry>
        </mxCell>
        <mxCell id="4Frrn1-FG3sVfnj2RJAE-35" value="&amp;lt;&amp;lt;include&amp;gt;&amp;gt;" style="edgeLabel;html=1;align=center;verticalAlign=middle;resizable=0;points=[];" parent="4Frrn1-FG3sVfnj2RJAE-32" vertex="1" connectable="0">
          <mxGeometry x="-0.4361" y="-1" relative="1" as="geometry">
            <mxPoint as="offset" />
          </mxGeometry>
        </mxCell>
        <mxCell id="4Frrn1-FG3sVfnj2RJAE-24" value="Bewerbungen verwalten" style="ellipse;whiteSpace=wrap;html=1;" parent="1" vertex="1">
          <mxGeometry x="490" y="1020" width="140" height="70" as="geometry" />
        </mxCell>
        <mxCell id="4Frrn1-FG3sVfnj2RJAE-38" value="" style="edgeStyle=orthogonalEdgeStyle;rounded=0;orthogonalLoop=1;jettySize=auto;html=1;dashed=1;entryX=1;entryY=0;entryDx=0;entryDy=0;" parent="1" source="4Frrn1-FG3sVfnj2RJAE-36" target="4Frrn1-FG3sVfnj2RJAE-22" edge="1">
          <mxGeometry relative="1" as="geometry">
            <mxPoint x="650" y="755" as="targetPoint" />
          </mxGeometry>
        </mxCell>
        <mxCell id="4Frrn1-FG3sVfnj2RJAE-39" value="&amp;lt;&amp;lt;extend&amp;gt;&amp;gt;" style="edgeLabel;html=1;align=center;verticalAlign=middle;resizable=0;points=[];" parent="4Frrn1-FG3sVfnj2RJAE-38" vertex="1" connectable="0">
          <mxGeometry x="-0.1522" y="-1" relative="1" as="geometry">
            <mxPoint as="offset" />
          </mxGeometry>
        </mxCell>
        <mxCell id="4Frrn1-FG3sVfnj2RJAE-36" value="Urheber informieren" style="ellipse;whiteSpace=wrap;html=1;" parent="1" vertex="1">
          <mxGeometry x="720" y="720" width="140" height="70" as="geometry" />
        </mxCell>
        <mxCell id="4Frrn1-FG3sVfnj2RJAE-42" value="" style="edgeStyle=orthogonalEdgeStyle;rounded=0;orthogonalLoop=1;jettySize=auto;html=1;entryX=1;entryY=1;entryDx=0;entryDy=0;dashed=1;" parent="1" source="4Frrn1-FG3sVfnj2RJAE-40" target="4Frrn1-FG3sVfnj2RJAE-24" edge="1">
          <mxGeometry relative="1" as="geometry">
            <mxPoint x="550" y="1165" as="targetPoint" />
          </mxGeometry>
        </mxCell>
        <mxCell id="4Frrn1-FG3sVfnj2RJAE-43" value="&amp;lt;&amp;lt;extend&amp;gt;&amp;gt;" style="edgeLabel;html=1;align=center;verticalAlign=middle;resizable=0;points=[];" parent="4Frrn1-FG3sVfnj2RJAE-42" vertex="1" connectable="0">
          <mxGeometry x="-0.1332" relative="1" as="geometry">
            <mxPoint as="offset" />
          </mxGeometry>
        </mxCell>
        <mxCell id="4Frrn1-FG3sVfnj2RJAE-40" value="E-Mail" style="ellipse;whiteSpace=wrap;html=1;" parent="1" vertex="1">
          <mxGeometry x="630" y="1130" width="140" height="70" as="geometry" />
        </mxCell>
        <mxCell id="4Frrn1-FG3sVfnj2RJAE-44" value="" style="endArrow=none;html=1;rounded=0;exitX=0.5;exitY=0.5;exitDx=0;exitDy=0;exitPerimeter=0;entryX=0;entryY=0.5;entryDx=0;entryDy=0;" parent="1" source="4Frrn1-FG3sVfnj2RJAE-2" target="4Frrn1-FG3sVfnj2RJAE-23" edge="1">
          <mxGeometry width="50" height="50" relative="1" as="geometry">
            <mxPoint x="560" y="600" as="sourcePoint" />
            <mxPoint x="610" y="550" as="targetPoint" />
          </mxGeometry>
        </mxCell>
        <mxCell id="4Frrn1-FG3sVfnj2RJAE-45" value="" style="endArrow=none;html=1;rounded=0;exitX=0.5;exitY=0.5;exitDx=0;exitDy=0;exitPerimeter=0;entryX=0;entryY=0.5;entryDx=0;entryDy=0;" parent="1" source="4Frrn1-FG3sVfnj2RJAE-2" target="4Frrn1-FG3sVfnj2RJAE-22" edge="1">
          <mxGeometry width="50" height="50" relative="1" as="geometry">
            <mxPoint x="560" y="600" as="sourcePoint" />
            <mxPoint x="610" y="550" as="targetPoint" />
          </mxGeometry>
        </mxCell>
        <mxCell id="4Frrn1-FG3sVfnj2RJAE-46" value="" style="endArrow=none;html=1;rounded=0;exitX=0.5;exitY=0.5;exitDx=0;exitDy=0;exitPerimeter=0;entryX=0;entryY=0.5;entryDx=0;entryDy=0;" parent="1" source="4Frrn1-FG3sVfnj2RJAE-2" target="4Frrn1-FG3sVfnj2RJAE-21" edge="1">
          <mxGeometry width="50" height="50" relative="1" as="geometry">
            <mxPoint x="560" y="600" as="sourcePoint" />
            <mxPoint x="610" y="550" as="targetPoint" />
          </mxGeometry>
        </mxCell>
        <mxCell id="4Frrn1-FG3sVfnj2RJAE-47" value="" style="endArrow=none;html=1;rounded=0;exitX=0.5;exitY=0.5;exitDx=0;exitDy=0;exitPerimeter=0;entryX=0;entryY=0.5;entryDx=0;entryDy=0;" parent="1" source="4Frrn1-FG3sVfnj2RJAE-2" target="4Frrn1-FG3sVfnj2RJAE-24" edge="1">
          <mxGeometry width="50" height="50" relative="1" as="geometry">
            <mxPoint x="560" y="600" as="sourcePoint" />
            <mxPoint x="610" y="550" as="targetPoint" />
          </mxGeometry>
        </mxCell>
        <mxCell id="ft7f1mX-PrzhP0e_UcY8-1" value="Projektausschreibungen suchen" style="ellipse;whiteSpace=wrap;html=1;" vertex="1" parent="1">
          <mxGeometry x="490" y="280" width="140" height="70" as="geometry" />
        </mxCell>
        <mxCell id="ft7f1mX-PrzhP0e_UcY8-2" value="auf Projektausschreibungen bewerben" style="ellipse;whiteSpace=wrap;html=1;" vertex="1" parent="1">
          <mxGeometry x="490" y="378.5" width="140" height="70" as="geometry" />
        </mxCell>
        <mxCell id="ft7f1mX-PrzhP0e_UcY8-3" value="" style="endArrow=none;html=1;rounded=0;exitX=0.5;exitY=0.5;exitDx=0;exitDy=0;exitPerimeter=0;entryX=0;entryY=0.5;entryDx=0;entryDy=0;" edge="1" parent="1" source="4Frrn1-FG3sVfnj2RJAE-1" target="ft7f1mX-PrzhP0e_UcY8-1">
          <mxGeometry width="50" height="50" relative="1" as="geometry">
            <mxPoint x="560" y="580" as="sourcePoint" />
            <mxPoint x="610" y="530" as="targetPoint" />
          </mxGeometry>
        </mxCell>
        <mxCell id="ft7f1mX-PrzhP0e_UcY8-4" value="" style="endArrow=none;html=1;rounded=0;exitX=0.5;exitY=0.5;exitDx=0;exitDy=0;exitPerimeter=0;entryX=0;entryY=0.5;entryDx=0;entryDy=0;" edge="1" parent="1" source="4Frrn1-FG3sVfnj2RJAE-1" target="ft7f1mX-PrzhP0e_UcY8-2">
          <mxGeometry width="50" height="50" relative="1" as="geometry">
            <mxPoint x="560" y="580" as="sourcePoint" />
            <mxPoint x="610" y="530" as="targetPoint" />
          </mxGeometry>
        </mxCell>
      </root>
    </mxGraphModel>
  </diagram>
</mxfile>
